<?xml version="1.0" encoding="UTF-8" standalone="no"?>
<!-- Generator: Adobe Illustrator 16.0.0, SVG Export Plug-In . SVG Version: 6.00 Build 0)  -->

<svg
   xmlns:dc="http://purl.org/dc/elements/1.1/"
   xmlns:cc="http://creativecommons.org/ns#"
   xmlns:rdf="http://www.w3.org/1999/02/22-rdf-syntax-ns#"
   xmlns:svg="http://www.w3.org/2000/svg"
   xmlns="http://www.w3.org/2000/svg"
   xmlns:sodipodi="http://sodipodi.sourceforge.net/DTD/sodipodi-0.dtd"
   xmlns:inkscape="http://www.inkscape.org/namespaces/inkscape"
   version="1.1"
   id="Layer_1"
   x="0px"
   y="0px"
   width="144"
   height="144"
   viewBox="0 0 144.00001 144"
   enable-background="new 0 0 100 100"
   xml:space="preserve"
   inkscape:version="0.48.5 r10040"
   sodipodi:docname="Logo favicon 16x16px.png"><metadata
   id="metadata17"><rdf:RDF><cc:Work
       rdf:about=""><dc:format>image/svg+xml</dc:format><dc:type
         rdf:resource="http://purl.org/dc/dcmitype/StillImage" /><dc:title></dc:title></cc:Work></rdf:RDF></metadata><defs
   id="defs15" /><sodipodi:namedview
   pagecolor="#ffffff"
   bordercolor="#666666"
   borderopacity="1"
   objecttolerance="10"
   gridtolerance="10"
   guidetolerance="10"
   inkscape:pageopacity="0"
   inkscape:pageshadow="2"
   inkscape:window-width="1366"
   inkscape:window-height="705"
   id="namedview13"
   showgrid="false"
   inkscape:zoom="2"
   inkscape:cx="91.875216"
   inkscape:cy="41.963751"
   inkscape:window-x="-8"
   inkscape:window-y="-8"
   inkscape:window-maximized="1"
   inkscape:current-layer="layer2"
   fit-margin-top="0"
   fit-margin-left="0"
   fit-margin-right="0"
   fit-margin-bottom="0" />
<g
   inkscape:groupmode="layer"
   id="layer1"
   inkscape:label="1"
   transform="translate(-0.67571164,128.00001)" /><g
   inkscape:groupmode="layer"
   id="layer2"
   inkscape:label="2"
   transform="translate(-0.67571164,128.00001)"><g
     id="g3"
     transform="matrix(9.0000002,0,0,9.0000002,-2743.6593,-429.69601)">
	
	
	
	<g
   id="g2996"
   transform="matrix(0.0906349,0,0,0.0906349,278.32793,45.758455)"><path
     style="fill:#ea3584;fill-opacity:1;stroke:none"
     inkscape:connector-curvature="0"
     id="path7"
     d="m 449.24503,-60.591529 c -21.71858,-7.958432 -36.8829,2.593952 -42.39453,7.47706 -1.78255,-8.406173 -5.9972,-18.006325 -14.47905,-28.146705 -8.48185,10.14038 -12.6965,19.740532 -14.48115,28.146705 -5.50532,-4.881004 -20.67385,-15.433391 -42.39453,-7.47706 0,0 -2.91137,60.08764372 51.52171,63.9176137 0,0 -29.70223,-13.4175077 -35.27902,-50.5106157 0,0 14.84901,-5.02605 25.04825,3.518862 -0.25855,13.100096 4.85578,21.537799 4.85578,21.537799 -5.98249,-23.408641 10.73106,-33.528 10.73106,-33.528 0,0 16.70514,10.119359 10.72686,33.528 0,0 5.12274,-8.437703 4.85578,-21.537799 10.20765,-8.542807 25.04825,-3.518862 25.04825,-3.518862 -5.57258,37.093108 -35.27272,50.5106157 -35.27272,50.5106157 54.42888,-3.82996998 51.51331,-63.9176137 51.51331,-63.9176137 z" /><path
     style="fill:#ea3584;fill-opacity:1;stroke:none"
     inkscape:connector-curvature="0"
     id="path9"
     d="m 453.92003,-65.844599 c -23.50113,-8.61428 -39.91829,2.806262 -45.87345,8.082455 -1.94021,-9.08094 -6.48909,-19.471467 -15.67513,-30.448471 -9.17553,10.977004 -13.73492,21.367531 -15.67513,30.448471 -5.95516,-5.276193 -22.37022,-16.696735 -45.87765,-8.082455 0,0 -3.1468,65.02960672 55.75737,69.1706837 0,0 -32.14483,-14.5168897 -38.17987,-54.6622037 0,0 16.06611,-5.433848 27.10618,3.80895 -0.28378,14.180556 5.25727,23.295129 5.25727,23.295129 -6.47858,-25.321523 11.60763,-36.281713 11.60763,-36.281713 0,0 18.0841,10.96019 11.60762,36.281713 0,0 5.54526,-9.114573 5.25307,-23.295129 11.04007,-9.240697 27.11249,-3.80895 27.11249,-3.80895 -6.02874,40.145314 -38.17568,54.6643057 -38.17568,54.6643057 58.91259,-4.14317898 55.75528,-69.1727857 55.75528,-69.1727857 z" /><path
     style="fill:#ea3584;fill-opacity:1;stroke:none"
     inkscape:connector-curvature="0"
     id="path11"
     d="m 397.34548,34.140355 c -44.67948,0 -80.88552,-36.2207553 -80.88552,-80.883416 0,-44.668968 36.20814,-80.881319 80.88552,-80.881319 26.28217,0 49.62354,12.54095 64.39268,31.959866 -6.9095,-10.638576 -15.76762,-19.395786 -26.58066,-26.242236 -13.9157,-8.58485 -29.38483,-12.95505 -46.41369,-13.10219 -24.42184,-0.13875 -45.07256,8.07614 -61.94587,24.65096 -17.32105,16.728268 -25.97737,37.671183 -25.97737,62.837155 0,24.421838 8.61848,45.4425297 25.86806,63.057868 17.23697,17.623746 37.93184,26.273761 62.05518,25.97737 17.02886,-0.298508 32.23313,-4.54888 45.63172,-12.767968 C 444.68618,22.431829 453.3404,14.145472 460.36972,3.9252117 445.52911,22.345645 422.82045,34.140355 397.34548,34.140355 z" /></g>
</g></g>
</svg>